Coordinates
version=1
nRows=58
nColumns=11
inDegrees=yes

Units are S.I. units (second, meters, Newtons, ...)
If the header above contains a line with 'inDegrees', this indicates whether rotational values are in degrees (yes) or radians (no).

endheader
time	pelvis_tilt	pelvis_tx	pelvis_ty	hip_flexion_l	hip_flexion_r	knee_angle_l	knee_angle_r	ankle_angle_l	ankle_angle_r	lumbar_extension
      2.75000000	      7.09638426	     -0.10264189	      0.90169829	     26.45712492	    -15.25833080	    -30.97171155	    -21.47769935	     -5.06061554	     11.58421852	    -15.59369320
      2.76000000	      6.77341174	     -0.09212842	      0.89959449	     26.12170674	    -15.16626364	    -30.93942381	    -22.36769185	     -5.22937225	     11.50221038	    -15.24939987
      2.77000000	      6.52400595	     -0.08108611	      0.89774938	     25.39836134	    -15.15749792	    -30.52691539	    -23.26716201	     -5.56702726	     11.11066186	    -14.94416856
      2.78000000	      6.09980153	     -0.06977555	      0.89577975	     24.56949314	    -14.92650449	    -29.71111736	    -24.28501988	     -5.31764339	     10.78487766	    -14.42893402
      2.79000000	      5.67677866	     -0.05875063	      0.89412729	     23.51942240	    -14.54781377	    -28.64741955	    -25.43205678	     -3.00418966	     10.03564705	    -13.97264361
      2.80000000	      4.71963432	     -0.04837021	      0.89240247	     23.19284271	    -13.32892704	    -27.56690222	    -26.95539050	     -2.30608517	      9.44275756	    -13.00564899
      2.81000000	      3.73242646	     -0.03873641	      0.89109468	     23.43525619	    -11.84633231	    -27.32454873	    -28.73956854	     -1.72355363	      8.18512563	    -12.15824952
      2.82000000	      3.12922589	     -0.02839023	      0.89059029	     24.01865492	    -10.71830006	    -28.34427507	    -30.67361001	     -0.76836270	      7.03737777	    -11.60560915
      2.83000000	      2.47118769	     -0.01991356	      0.89057927	     25.10121474	     -9.20988393	    -29.83048394	    -32.74912442	     -0.03281395	      5.39111456	    -11.36154352
      2.84000000	      2.19874035	     -0.01017634	      0.89108036	     25.36061410	     -8.30844394	    -30.92902633	    -34.74140219	      0.72441698	      3.90565872	    -11.36539680
      2.85000000	      2.08883187	     -0.00047421	      0.89223802	     24.97034867	     -7.51361894	    -31.32709736	    -36.68118952	      1.54830613	      2.17418292	    -11.58601689
      2.86000000	      1.52364990	      0.00878402	      0.89281087	     24.82529654	     -6.00550355	    -31.19513087	    -38.87744511	      2.16081348	      0.02625069	    -11.32000601
      2.87000000	      1.17338920	      0.01842185	      0.89428471	     24.02202440	     -4.71000598	    -30.43340987	    -40.93116148	      2.69519501	     -2.49802416	    -11.28849541
      2.88000000	      0.51596435	      0.02775739	      0.89533752	     23.48167749	     -2.78568561	    -29.49197026	    -43.26987271	      3.14082890	     -5.33003184	    -10.93122068
      2.89000000	     -0.06532931	      0.03711673	      0.89660341	     22.81665350	     -0.73889106	    -28.45306593	    -45.77312652	      3.50439444	     -8.30171742	    -10.64961477
      2.90000000	     -0.76568677	      0.04609886	      0.89795591	     22.37137071	      1.66256172	    -27.51992144	    -48.39018843	      3.76897410	    -11.28982896	    -10.27089295
      2.91000000	     -1.48373717	      0.05405976	      0.89946554	     22.04533004	      4.30438132	    -26.61195873	    -51.11132468	      3.98090742	    -14.12738250	    -10.05474917
      2.92000000	     -2.09638998	      0.06175587	      0.90106784	     21.64175321	      6.96159276	    -25.73890027	    -53.87377414	      4.11673457	    -16.11200455	    -10.00015493
      2.93000000	     -2.62572113	      0.07057751	      0.90266673	     20.96110029	      9.37952122	    -24.66451552	    -56.35094266	      4.27292349	    -16.48038914	     -9.85731360
      2.94000000	     -2.84764220	      0.07918590	      0.90469156	     19.94831889	     11.50321665	    -23.55922479	    -58.58030297	      4.42255707	    -15.16256489	    -10.22254976
      2.95000000	     -3.06574255	      0.08753107	      0.90660513	     18.95222306	     13.66646028	    -22.43085328	    -60.44723508	      4.58349399	    -13.48942831	    -10.57866472
      2.96000000	     -3.28430920	      0.09602953	      0.90826174	     18.00283516	     15.82243005	    -21.41777743	    -61.98252793	      4.84554722	    -12.17201991	    -10.90965299
      2.97000000	     -3.53985487	      0.10446612	      0.90987352	     17.07397612	     18.07390016	    -20.35061380	    -63.31223191	      4.98953348	    -10.76908685	    -11.20384420
      2.98000000	     -3.56047266	      0.11307439	      0.91170751	     15.95201803	     20.12074874	    -19.38811214	    -64.44314125	      5.07551813	     -9.02444612	    -11.72000259
      2.99000000	     -3.57086338	      0.12195896	      0.91337478	     14.77641481	     22.12378196	    -18.36920863	    -65.20966227	      5.21864547	     -7.36801865	    -12.29503471
      3.00000000	     -3.43580694	      0.13095924	      0.91498327	     13.49320877	     23.92196812	    -17.44972789	    -65.63932267	      5.36912676	     -5.50542813	    -12.90953819
      3.01000000	     -3.57613126	      0.13985530	      0.91610266	     12.51967640	     25.96896229	    -16.53897125	    -65.60407894	      5.45294682	     -3.78676877	    -13.22248185
      3.02000000	     -3.57545387	      0.14893742	      0.91723292	     11.48679476	     27.73580435	    -15.82121239	    -65.04461462	      5.63071661	     -2.53242133	    -13.65345578
      3.03000000	     -3.49048966	      0.15817677	      0.91835764	     10.37763399	     29.23829599	    -15.15522797	    -63.86080762	      5.73807768	     -1.85890378	    -14.09257196
      3.04000000	     -3.75882284	      0.16701834	      0.91871660	      9.76643328	     31.08224253	    -14.64760060	    -62.39933370	      5.93198175	     -1.43360861	    -14.13175738
      3.05000000	     -3.81398302	      0.17639785	      0.91914747	      8.87001513	     32.48495788	    -14.12834724	    -60.42728890	      6.31502314	     -0.61996126	    -14.35059754
      3.06000000	     -3.92197999	      0.18578945	      0.91917437	      8.13714781	     33.85176899	    -13.78010952	    -58.15860973	      6.65659874	     -0.30106938	    -14.52265184
      3.07000000	     -3.99742094	      0.19528281	      0.91885232	      7.53476577	     34.99463986	    -13.75795317	    -55.47410716	      7.16967386	      0.15664862	    -14.68552468
      3.08000000	     -3.86549893	      0.20503371	      0.91833815	      6.67939548	     35.74749231	    -13.69396667	    -52.44511632	      7.50286993	      0.41377853	    -15.05947034
      3.09000000	     -4.08160655	      0.21398026	      0.91659877	      6.47508061	     36.88444894	    -14.06250004	    -49.33505292	      8.07492041	      0.90199348	    -15.08936567
      3.10000000	     -3.87533423	      0.22402611	      0.91534796	      5.69157923	     37.28391725	    -14.35398197	    -45.90945717	      9.04693918	      1.70698665	    -15.48402189
      3.11000000	     -3.37848740	      0.23462427	      0.91422106	      4.54436263	     37.15072416	    -14.62294452	    -42.25637692	      9.92210076	      2.58805861	    -16.13039322
      3.12000000	     -3.05751345	      0.24519499	      0.91240532	      3.63087185	     37.10725758	    -14.99229991	    -38.58207533	     10.88169428	      3.75029159	    -16.55203169
      3.13000000	     -2.55063543	      0.25632709	      0.91067306	      2.45311607	     36.71581681	    -15.32933199	    -34.91202379	     11.79516044	      4.51796141	    -17.12399910
      3.14000000	     -1.91161542	      0.26799406	      0.90891126	      1.06499493	     36.03199707	    -15.61561592	    -31.34100749	     12.81961088	      5.35000574	    -17.77681567
      3.15000000	     -1.38770927	      0.28008193	      0.90669400	     -0.21170808	     35.47069221	    -15.94981634	    -28.16433688	     14.03917451	      5.52634764	    -18.21932536
      3.16000000	     -0.75108133	      0.29256350	      0.90448532	     -1.63289839	     34.86939654	    -16.30291960	    -25.55361604	     14.97318492	      5.26385052	    -18.72686002
      3.17000000	     -0.27342574	      0.30539470	      0.90171828	     -2.85044271	     34.49003713	    -16.75049257	    -23.60861159	     16.16535955	      5.10370946	    -18.97081986
      3.18000000	      0.32392961	      0.31877387	      0.89907207	     -4.24442744	     34.03510923	    -17.15806745	    -22.34649302	     16.93396095	      4.87227671	    -19.24760383
      3.19000000	      0.84373684	      0.33261314	      0.89601030	     -5.52071616	     33.71104907	    -17.71250818	    -21.73143937	     17.89662712	      4.70908648	    -19.31763062
      3.20000000	      1.32493937	      0.34713844	      0.89289090	     -6.77928860	     33.36415465	    -18.29078306	    -21.52910491	     18.69429363	      4.24619236	    -19.23003438
      3.21000000	      2.05018613	      0.36217529	      0.89011598	     -8.32467336	     32.60385765	    -18.87585141	    -21.54904323	     19.11237824	      3.94198858	    -19.34656060
      3.22000000	      2.66430057	      0.37748227	      0.88695176	     -9.65014372	     31.85375848	    -19.71404338	    -21.70944456	     19.49874913	      3.57475892	    -19.26909791
      3.23000000	      3.18547367	      0.39304400	      0.88353937	    -10.77370162	     30.97468761	    -20.79002755	    -21.70285183	     20.00142061	      2.67418262	    -19.04788545
      3.24000000	      3.68666678	      0.40898646	      0.88012011	    -11.78280285	     29.81483729	    -22.06255693	    -21.44608450	     20.23809909	     -0.82210099	    -18.75919671
      3.25000000	      3.62946669	      0.42351799	      0.87671575	    -11.80261818	     29.38020986	    -23.81366341	    -21.77173724	     20.16863315	     -7.09504250	    -18.05922355
      3.26000000	      3.32852954	      0.43781174	      0.87328469	    -11.38085715	     29.72508049	    -25.89475610	    -23.39324014	     20.13645941	     -9.39393590	    -17.14768801
      3.27000000	      2.84847237	      0.45152931	      0.87020786	    -10.62642972	     30.71140915	    -28.14316425	    -25.38149448	     19.45722529	     -8.86212734	    -16.13848091
      3.28000000	      2.24190164	      0.46418355	      0.86807458	     -9.59530291	     32.21382844	    -30.33449023	    -28.24975057	     18.22971048	     -7.10956339	    -15.19595689
      3.29000000	      1.64791179	      0.47690754	      0.86622232	     -8.57613897	     33.60732076	    -32.43512962	    -31.42711864	     17.07175033	     -5.31110642	    -14.27290581
      3.30000000	      1.18251597	      0.48967156	      0.86496824	     -7.71917931	     34.42073797	    -34.38832516	    -33.63689740	     15.40406748	     -3.76490524	    -13.48914235
      3.31000000	      0.70878140	      0.50206039	      0.86449396	     -6.82952233	     34.85594743	    -36.19273713	    -35.10913214	     13.63833863	     -2.07817401	    -12.75449882
      3.32000000	      0.14754770	      0.51457988	      0.86448318	     -5.88770937	     35.02875004	    -37.71584749	    -36.14418460	     11.72686751	     -0.73811162	    -11.87774718
